<?xml version="1.0" encoding="utf-8"?>
<!-- Uploaded to: SVG Repo, www.svgrepo.com, Generator: SVG Repo Mixer Tools -->
<svg fill="#000000" width="800px" height="800px" viewBox="0 0 32 32" version="1.1" xmlns="http://www.w3.org/2000/svg">
<title>filter</title>
<path d="M30.646 1.62c-0.133-0.223-0.372-0.37-0.646-0.37h-28c-0.414 0-0.75 0.336-0.75 0.75 0 0.134 0.035 0.259 0.096 0.368l-0.002-0.004 9.905 17.831v5.805c0 0.292 0.167 0.545 0.411 0.668l0.004 0.002 7.999 4c0.096 0.050 0.211 0.080 0.332 0.080 0.002 0 0.003 0 0.005 0h-0c0.001 0 0.001 0 0.002 0 0.413 0 0.748-0.335 0.748-0.748 0-0.001 0-0.001 0-0.002v0-9.805l9.906-17.831c0.059-0.105 0.094-0.23 0.094-0.364 0-0.14-0.039-0.272-0.106-0.384l0.002 0.003zM19.344 19.637c-0.059 0.105-0.093 0.23-0.094 0.363v8.787l-6.5-3.25v-5.537c0-0 0-0 0-0.001 0-0.133-0.035-0.258-0.097-0.366l0.002 0.004-9.381-16.887h25.45z"></path>
</svg>